<svg xmlns="http://www.w3.org/2000/svg" width="512" height="512" viewBox="0 0 512 512"><defs><linearGradient id="bg" x1="0" y1="0" x2="0" y2="1"><stop offset="0" stop-color="#FFB84D"/><stop offset="1" stop-color="#FF7A1A"/></linearGradient><linearGradient id="gold" x1="0" y1="0" x2="0" y2="1"><stop offset="0" stop-color="#FFE066"/><stop offset="1" stop-color="#FFB000"/></linearGradient></defs><rect x="16" y="16" width="480" height="480" rx="112" fill="url(#bg)" stroke="#fff" stroke-width="16"/><g transform="translate(0.0 0.0) scale(1)"><path d="M256.0 42.0 L275.4 93.3 L330.2 95.9 L287.4 130.2 L301.8 183.1 L256.0 153.0 L210.2 183.1 L224.6 130.2 L181.8 95.9 L236.6 93.3 Z" fill="url(#gold)" stroke="#fff" stroke-width="12" stroke-linejoin="round"/><path d="M100 196 C154 166 222 168 256 206 L256 400 C222 366 154 364 100 386 Z" fill="#fff"/><path d="M412 196 C358 166 290 168 256 206 L256 400 C290 366 358 364 412 386 Z" fill="#fff" fill-opacity="0.92"/><path d="M256 206 L256 400" stroke="#e8a86a" stroke-width="10" stroke-linecap="round"/><path d="M138 232 C176 216 212 220 234 240" stroke="#f0c79a" stroke-width="12" stroke-linecap="round" fill="none"/><path d="M138 288 C176 272 212 276 234 296" stroke="#f0c79a" stroke-width="12" stroke-linecap="round" fill="none"/><path d="M374 232 C336 216 300 220 278 240" stroke="#f0c79a" stroke-width="12" stroke-linecap="round" fill="none"/></g></svg>